<svg width="128" height="128" fill="none" xmlns="http://www.w3.org/2000/svg"><rect width="128" height="128" rx="64" fill="#1E1E1E"/><path fill="#DCDCAA" d="M70 17h16v16H70zM70 33h16v16H70zM70 49h16v16H70zM70 65h16v16H70zM86 81h16v16H86zM70 82h16v1H70zM70 84h16v1H70zM70 86h16v1H70zM70 88h16v1H70zM70 90h16v1H70zM70 92h16v1H70zM70 94h16v1H70zM70 96h16v1H70z"/><path fill="#D74242" d="M22 49h16v16H22zM54 17h16v16H54zM38 33h16v16H38zM38 17h16v1H38zM38 19h16v1H38zM38 21h16v1H38zM38 23h16v1H38zM38 25h16v1H38zM38 27h16v1H38zM38 29h16v1H38zM38 31h16v1H38zM38 49h16v16H38zM38 65h16v16H38zM38 81h16v16H38zM38 97h16v16H38z"/></svg>