<svg width="128" height="128" viewBox="0 0 128 128" fill="none" xmlns="http://www.w3.org/2000/svg">
<rect width="128" height="128" rx="64" fill="#1E1E1E"/>
<rect x="70" y="17" width="16" height="16" fill="#DCDCAA"/>
<rect x="70" y="33" width="16" height="16" fill="#DCDCAA"/>
<rect x="70" y="49" width="16" height="16" fill="#DCDCAA"/>
<rect x="70" y="65" width="16" height="16" fill="#DCDCAA"/>
<rect x="86" y="81" width="16" height="16" fill="#DCDCAA"/>
<rect x="70" y="82" width="16" height="1" fill="#DCDCAA"/>
<rect x="70" y="84" width="16" height="1" fill="#DCDCAA"/>
<rect x="70" y="86" width="16" height="1" fill="#DCDCAA"/>
<rect x="70" y="88" width="16" height="1" fill="#DCDCAA"/>
<rect x="70" y="90" width="16" height="1" fill="#DCDCAA"/>
<rect x="70" y="92" width="16" height="1" fill="#DCDCAA"/>
<rect x="70" y="94" width="16" height="1" fill="#DCDCAA"/>
<rect x="70" y="96" width="16" height="1" fill="#DCDCAA"/>
<rect x="22" y="49" width="16" height="16" fill="#D74242"/>
<rect x="54" y="17" width="16" height="16" fill="#D74242"/>
<rect x="38" y="33" width="16" height="16" fill="#D74242"/>
<rect x="38" y="17" width="16" height="1" fill="#D74242"/>
<rect x="38" y="19" width="16" height="1" fill="#D74242"/>
<rect x="38" y="21" width="16" height="1" fill="#D74242"/>
<rect x="38" y="23" width="16" height="1" fill="#D74242"/>
<rect x="38" y="25" width="16" height="1" fill="#D74242"/>
<rect x="38" y="27" width="16" height="1" fill="#D74242"/>
<rect x="38" y="29" width="16" height="1" fill="#D74242"/>
<rect x="38" y="31" width="16" height="1" fill="#D74242"/>
<rect x="38" y="49" width="16" height="16" fill="#D74242"/>
<rect x="38" y="65" width="16" height="16" fill="#D74242"/>
<rect x="38" y="81" width="16" height="16" fill="#D74242"/>
<rect x="38" y="97" width="16" height="16" fill="#D74242"/>
</svg>
